<?xml version="1.0" standalone="no"?>
<!DOCTYPE svg PUBLIC "-//W3C//DTD SVG 20010904//EN"
 "http://www.w3.org/TR/2001/REC-SVG-20010904/DTD/svg10.dtd">
<svg version="1.0" xmlns="http://www.w3.org/2000/svg"
 width="2400.000000pt" height="2400.000000pt" viewBox="0 0 2400.000000 2400.000000"
 preserveAspectRatio="xMidYMid meet">
<g transform="translate(0.000000,2400.000000) scale(0.100000,-0.100000)"
fill="#000000" stroke="none">
<path d="M12303 20816 c-3 -4 -4 -126 -3 -270 1 -143 3 -496 5 -782 1 -287 5
-527 9 -533 5 -7 45 -11 111 -11 57 0 139 -7 182 -15 43 -8 95 -15 115 -15 21
0 59 -7 85 -16 26 -10 75 -23 108 -30 179 -37 314 -82 550 -181 82 -34 396
-192 415 -207 8 -7 47 -31 85 -54 80 -46 313 -200 359 -238 17 -14 83 -66 146
-117 201 -160 672 -645 712 -732 6 -14 14 -25 18 -25 4 0 38 -42 74 -92 37
-51 90 -124 118 -163 27 -38 59 -86 69 -105 11 -19 25 -44 32 -55 6 -10 31
-49 53 -85 59 -92 184 -314 217 -385 16 -33 32 -67 37 -75 12 -20 63 -124 88
-180 11 -25 32 -72 47 -105 45 -95 111 -261 127 -315 6 -19 18 -51 28 -70 18
-36 81 -221 119 -350 13 -41 29 -91 36 -110 38 -97 163 -598 199 -795 15 -82
34 -179 42 -215 7 -36 17 -90 20 -120 3 -30 11 -71 19 -90 7 -19 16 -71 20
-115 3 -44 10 -98 15 -120 7 -33 30 -224 55 -470 13 -121 45 -535 55 -689 6
-93 15 -201 21 -239 9 -57 8 -72 -3 -83 -24 -24 -9908 -21 -9926 3 -9 12 -11
38 -6 88 7 83 -5 106 -83 150 -27 15 -80 51 -118 80 -39 29 -84 59 -100 68
-17 8 -58 37 -91 64 -112 87 -316 238 -348 255 -29 16 -98 17 -871 18 -462 0
-894 5 -959 10 -77 6 -126 5 -138 -1 -30 -16 -23 -60 14 -93 43 -37 206 -233
254 -305 21 -31 54 -74 74 -96 19 -22 62 -78 95 -124 33 -45 78 -106 101 -134
22 -29 87 -110 143 -180 l101 -128 -122 -154 c-111 -139 -320 -413 -358 -468
-39 -58 -244 -307 -284 -347 -48 -46 -60 -85 -28 -91 9 -2 456 -2 993 1 l976
5 79 63 c161 127 437 326 584 421 91 58 94 63 87 152 -8 105 1 113 123 99 55
-6 1834 -10 4944 -10 3321 1 4862 -3 4871 -10 10 -8 10 -20 0 -58 -7 -26 -16
-101 -19 -167 -4 -66 -14 -201 -22 -300 -8 -99 -21 -264 -29 -367 -8 -103 -18
-213 -24 -245 -5 -32 -12 -94 -16 -138 -3 -44 -12 -116 -20 -160 -7 -44 -17
-114 -21 -155 -3 -41 -12 -91 -19 -111 -7 -20 -16 -63 -20 -95 -4 -33 -11 -74
-17 -92 -5 -18 -16 -72 -23 -120 -33 -216 -108 -551 -141 -630 -8 -18 -14 -43
-14 -57 0 -24 -27 -116 -86 -290 -18 -55 -38 -118 -43 -140 -9 -41 -54 -166
-111 -310 -17 -44 -36 -96 -42 -115 -6 -19 -17 -44 -24 -55 -8 -11 -14 -26
-14 -35 0 -8 -9 -32 -19 -51 -11 -20 -41 -88 -67 -150 -26 -63 -51 -118 -55
-124 -4 -5 -35 -66 -69 -134 -34 -69 -72 -141 -84 -160 -13 -20 -42 -71 -65
-115 -24 -43 -53 -93 -65 -111 -11 -17 -37 -58 -56 -89 -19 -32 -54 -86 -77
-119 -23 -34 -63 -93 -89 -132 -44 -66 -79 -111 -218 -285 -72 -90 -297 -340
-352 -391 -162 -151 -246 -227 -289 -260 -27 -22 -65 -52 -84 -67 -138 -113
-598 -412 -634 -412 -3 0 -22 -11 -42 -24 -20 -14 -57 -32 -83 -42 -26 -10
-54 -23 -62 -30 -8 -6 -26 -15 -40 -19 -14 -4 -56 -22 -95 -40 -38 -18 -133
-54 -210 -79 -77 -25 -153 -51 -170 -57 -139 -51 -405 -96 -601 -102 -77 -2
-145 -6 -150 -10 -7 -4 -11 -262 -12 -763 -1 -417 -4 -772 -8 -790 -9 -51 23
-77 84 -67 58 10 490 11 554 1 93 -15 89 -45 78 501 -10 503 -10 507 38 516
100 20 348 91 384 111 14 8 34 14 44 14 9 0 40 11 68 24 28 14 92 41 141 61
193 79 655 325 704 376 9 9 27 22 41 29 22 11 126 80 220 146 19 13 44 30 54
37 11 6 28 21 39 31 11 11 50 42 86 69 179 134 434 374 644 604 72 80 138 155
146 166 8 12 31 40 51 62 35 39 74 88 115 145 11 16 47 63 80 107 85 110 102
134 121 168 9 17 48 76 85 133 99 149 157 248 267 454 34 64 67 120 72 123 6
3 10 13 10 22 0 8 36 89 80 179 44 90 80 167 80 170 0 3 14 38 31 77 16 40 34
81 39 92 4 11 17 40 29 65 11 25 23 59 27 75 4 17 10 35 14 40 5 6 15 33 23
60 9 28 27 79 42 115 23 57 93 271 157 480 28 93 68 245 82 315 7 33 17 69 23
80 6 11 14 43 18 70 4 28 11 58 17 68 9 17 24 89 53 252 38 213 57 316 70 380
20 97 43 247 59 390 8 66 19 149 24 185 6 36 13 110 17 165 3 55 12 154 20
220 8 66 19 188 25 270 5 83 15 218 22 300 8 109 9 171 1 225 -16 111 -34 105
294 105 l275 0 1 320 1 320 -85 3 c-46 1 -165 -1 -264 -7 -239 -12 -220 -27
-220 180 0 158 -23 518 -46 704 -6 50 -17 160 -24 245 -7 85 -18 189 -24 230
-6 41 -15 111 -21 155 -12 101 -42 286 -70 435 -11 63 -32 176 -45 250 -36
195 -45 241 -57 275 -6 17 -16 57 -23 90 -7 33 -17 71 -24 85 -6 14 -15 50
-21 80 -14 81 -37 167 -87 330 -57 182 -80 259 -102 335 -10 33 -22 69 -28 80
-6 11 -20 45 -30 75 -64 177 -124 330 -170 430 -45 99 -52 115 -58 140 -4 14
-13 32 -20 40 -8 8 -17 27 -20 43 -4 15 -11 29 -15 32 -4 2 -19 31 -34 62 -15
32 -34 72 -43 88 -8 17 -49 95 -90 174 -41 79 -89 167 -108 195 -18 28 -44 72
-58 98 -25 48 -200 315 -247 378 -15 19 -53 71 -86 115 -68 93 -96 128 -167
209 -29 32 -58 68 -66 80 -88 129 -620 645 -770 746 -20 14 -77 57 -126 96
-50 38 -108 81 -130 94 -22 13 -52 33 -66 44 -14 12 -48 35 -74 51 -27 17 -56
35 -64 40 -158 101 -379 219 -581 311 -80 36 -163 75 -186 85 -22 10 -49 19
-60 19 -11 0 -24 4 -29 9 -6 5 -64 28 -130 51 -114 40 -169 55 -297 83 -32 7
-62 17 -67 22 -7 7 -7 184 -2 495 5 267 7 487 4 490 -8 9 -705 5 -710 -4z
m-6400 -7966 c7 -12 23 -20 39 -20 16 0 33 -8 42 -21 10 -15 20 -19 34 -15 13
4 24 2 29 -7 4 -8 26 -22 48 -32 22 -10 64 -42 93 -72 35 -35 61 -53 77 -53
19 0 26 -7 35 -37 5 -22 23 -48 40 -62 18 -14 30 -32 30 -47 0 -17 7 -25 28
-30 31 -8 101 -77 103 -102 1 -9 3 -64 4 -121 l4 -105 -174 -174 c-119 -120
-179 -173 -189 -169 -10 4 -31 -10 -60 -40 -29 -30 -50 -44 -60 -40 -10 4 -31
-9 -58 -38 -38 -40 -48 -45 -88 -45 -34 0 -48 -5 -58 -20 -12 -19 -23 -20
-435 -20 l-422 0 -32 34 c-40 41 -47 107 -13 128 11 7 20 24 20 38 0 16 15 39
39 63 30 29 41 49 46 84 5 35 16 56 45 85 34 35 38 44 33 75 -5 29 -1 39 21
59 25 24 26 30 24 105 -1 49 -7 83 -14 87 -7 4 -13 16 -16 27 -2 11 -12 21
-23 23 -11 2 -24 9 -30 16 -5 7 -20 18 -32 25 -28 15 -30 41 -3 41 12 0 25 10
32 25 10 23 7 28 -35 67 -33 29 -47 49 -47 67 0 15 -8 31 -20 39 -12 7 -20 23
-20 40 0 16 -8 32 -20 40 -23 14 -29 89 -8 110 8 8 141 11 495 11 469 0 484 0
496 -19z m11178 -218 l31 -27 -34 -16 c-27 -13 -41 -14 -78 -5 -53 13 -61 34
-23 58 40 25 68 22 104 -10z m-139 -217 c14 -30 33 -32 48 -5 8 15 21 20 53
20 41 0 47 -5 135 -94 53 -54 92 -102 92 -113 0 -29 -58 -73 -94 -73 -58 0
-106 -12 -106 -26 0 -10 14 -14 49 -14 49 0 91 -24 60 -34 -73 -23 -97 -27
-147 -25 -31 2 -67 0 -79 -5 -31 -10 -63 10 -63 39 0 21 5 24 43 27 47 3 52
16 14 38 -21 12 -30 12 -49 2 -36 -20 -78 -1 -78 35 0 18 -8 33 -21 41 -20 13
-20 14 11 46 23 23 39 31 55 28 34 -6 40 16 14 45 l-24 25 28 20 c15 11 27 26
27 34 0 23 19 16 32 -11z m-10101 -95 c46 -85 7 -200 -67 -200 -2 0 -4 40 -4
89 0 143 29 189 71 111z m-1726 -70 c3 -10 1 -29 -6 -41 -11 -22 -12 -22 -25
-4 -15 20 -18 47 -7 58 13 13 32 7 38 -13z m12020 -350 l30 -12 -30 -14 c-36
-16 -181 -19 -190 -3 -4 5 1 20 12 31 20 23 118 22 178 -2z"/>
<path d="M11951 19713 c-62 -64 -119 -130 -126 -146 -6 -15 -33 -50 -59 -77
-26 -26 -57 -62 -69 -78 -12 -17 -44 -57 -72 -90 -27 -33 -68 -83 -90 -112
-22 -29 -47 -59 -55 -68 -8 -8 -28 -34 -45 -58 -38 -54 -137 -173 -193 -233
-24 -25 -51 -62 -62 -81 -10 -19 -32 -48 -50 -65 -17 -16 -52 -58 -76 -92 -25
-35 -49 -63 -54 -63 -4 0 -17 -15 -29 -32 -36 -57 -104 -145 -184 -240 -43
-51 -99 -119 -125 -151 -26 -33 -65 -81 -87 -107 -22 -27 -69 -86 -105 -131
-36 -45 -104 -128 -152 -185 -49 -57 -88 -107 -88 -112 0 -5 -10 -18 -22 -29
-13 -11 -39 -41 -58 -67 -33 -44 -59 -77 -160 -201 -23 -27 -65 -81 -93 -119
-29 -38 -69 -88 -91 -110 -21 -23 -45 -52 -54 -66 -26 -41 -136 -170 -144
-170 -4 0 -16 -17 -27 -37 -11 -21 -45 -67 -76 -103 -108 -125 -141 -165 -165
-200 -13 -19 -47 -63 -75 -96 -27 -34 -72 -89 -99 -123 -27 -35 -60 -75 -72
-89 -105 -124 -154 -184 -154 -191 0 -4 -21 -30 -47 -57 -27 -27 -55 -58 -63
-70 -14 -20 -32 -43 -135 -174 -60 -76 -131 -165 -185 -230 -30 -37 -73 -91
-95 -120 -53 -70 -108 -137 -147 -181 -18 -20 -62 -73 -98 -119 -36 -45 -90
-112 -121 -149 -31 -36 -61 -76 -68 -89 -13 -24 -19 -32 -81 -102 -65 -74 -73
-83 -114 -134 -23 -28 -50 -64 -60 -81 -11 -16 -28 -36 -38 -43 -10 -7 -18
-19 -18 -27 0 -8 -8 -20 -18 -27 -24 -17 -85 -90 -137 -164 -22 -31 -58 -76
-80 -99 -52 -55 -83 -93 -120 -146 -16 -23 -60 -79 -97 -123 -109 -131 -118
-143 -118 -153 0 -5 -15 -23 -32 -39 -18 -17 -50 -53 -71 -80 -73 -96 -163
-208 -224 -280 -35 -40 -63 -76 -63 -81 0 -4 -12 -24 -26 -44 -38 -56 -31 -92
21 -100 25 -4 45 -15 55 -30 8 -13 27 -34 41 -47 15 -13 29 -37 33 -53 7 -35
22 -37 62 -6 26 20 46 40 149 152 17 18 64 76 105 129 41 54 103 132 137 174
35 42 73 90 85 106 13 16 43 53 68 81 25 29 70 85 100 125 30 40 70 89 88 109
32 35 68 79 142 176 19 26 60 74 90 109 30 34 71 84 90 110 74 100 100 132
130 166 39 44 85 101 113 139 51 68 91 119 128 161 64 73 162 190 189 226 14
18 46 60 73 94 26 33 47 63 47 66 0 4 24 33 54 65 30 32 79 91 110 131 30 40
77 97 105 126 27 29 53 62 56 73 4 10 10 19 14 19 5 0 21 19 37 43 25 36 129
166 224 277 65 77 88 106 100 130 7 14 26 39 42 55 47 47 191 223 214 261 12
20 47 62 78 96 31 33 68 77 81 98 13 21 29 41 35 45 11 7 95 113 160 202 19
26 44 57 55 69 51 53 144 165 223 271 26 33 74 93 107 132 33 38 74 89 90 111
17 23 48 63 70 88 23 26 61 74 85 106 25 33 64 81 88 107 23 26 42 50 42 53 0
6 120 154 188 232 15 17 43 52 62 78 19 26 68 86 108 134 110 130 109 129 131
165 11 18 33 44 48 58 15 14 43 46 60 70 31 41 70 91 248 315 39 48 84 102
101 118 17 17 39 45 49 61 23 39 90 123 188 238 119 140 206 279 207 329 0 10
-11 25 -25 34 -19 12 -55 64 -55 79 0 2 11 6 25 9 42 11 53 46 21 71 -31 25
-32 34 -8 66 19 24 52 111 52 136 0 34 -45 3 -149 -104z"/>
<path d="M17937 13382 c-15 -16 -16 -31 -7 -118 5 -54 10 -161 10 -236 0 -123
15 -320 26 -357 4 -11 8 -11 22 3 10 9 33 16 51 16 32 0 32 1 30 40 -4 48 16
77 26 37 16 -63 50 -37 60 46 8 60 20 74 31 32 8 -33 17 -32 31 5 9 24 17 30
41 30 70 0 103 -32 62 -58 -22 -14 -18 -32 7 -32 8 0 17 9 20 20 9 35 56 26
97 -20 24 -26 44 -40 61 -40 14 0 30 -9 37 -20 8 -12 24 -20 40 -20 17 0 33
-8 40 -20 8 -12 24 -20 40 -20 17 0 33 -8 40 -20 8 -12 24 -20 38 -20 25 0 73
-42 113 -101 17 -24 68 -31 114 -15 17 6 22 4 25 -15 2 -12 10 -25 18 -29 74
-35 89 -45 99 -66 8 -19 16 -23 35 -18 18 4 28 0 38 -15 7 -12 23 -21 38 -21
72 0 119 -121 66 -167 -13 -11 -25 -26 -28 -33 -3 -10 -9 -10 -27 -1 -17 10
-26 10 -37 0 -22 -18 -17 -36 12 -43 41 -11 22 -31 -34 -36 -39 -4 -56 -11
-68 -28 -8 -12 -26 -22 -39 -22 -13 0 -38 -15 -58 -35 -19 -19 -44 -35 -56
-35 -12 0 -31 -11 -43 -25 -13 -15 -32 -25 -47 -25 -15 0 -31 -8 -39 -20 -9
-14 -21 -20 -40 -18 -24 3 -27 0 -27 -27 -1 -29 -3 -30 -55 -36 -46 -5 -58 -3
-73 13 -24 24 -80 21 -85 -4 -3 -14 3 -18 25 -18 50 0 71 -22 45 -48 -12 -12
-33 -22 -46 -22 -14 0 -28 -4 -31 -10 -3 -5 -18 -10 -33 -10 -16 0 -32 -8 -40
-20 -7 -12 -23 -20 -40 -20 -16 0 -32 -8 -40 -20 -9 -15 -23 -20 -60 -20 -37
0 -50 -4 -60 -21 -14 -21 -14 -21 -48 12 -22 22 -34 42 -34 60 0 15 -5 31 -10
34 -6 4 -17 22 -25 41 -16 39 -28 43 -42 12 -9 -20 -10 -20 -31 15 -22 38 -36
45 -48 26 -3 -6 -17 -8 -30 -5 -20 5 -25 2 -30 -21 -3 -16 -8 -36 -11 -45 -2
-10 -8 -129 -12 -265 -5 -136 -13 -260 -19 -274 -8 -20 -6 -32 10 -57 26 -42
49 -40 101 7 23 22 54 42 69 46 14 4 36 18 49 31 12 13 28 24 34 24 7 0 25 10
40 22 15 12 42 29 59 38 47 24 296 170 337 197 19 12 39 23 44 23 5 0 16 6 24
14 9 7 52 32 96 56 44 23 87 48 96 56 8 8 19 14 23 14 4 0 22 11 39 24 18 13
61 38 97 56 36 18 88 47 115 64 83 53 216 132 283 167 35 19 84 46 110 60 109
60 306 159 317 159 16 0 45 33 45 52 0 21 -29 43 -75 58 -22 7 -53 21 -70 30
-16 10 -77 42 -135 71 -58 29 -123 64 -145 79 -22 15 -74 45 -116 67 -41 21
-86 47 -100 57 -56 39 -98 64 -120 71 -13 4 -37 17 -54 29 -16 12 -55 36 -85
53 -30 17 -77 43 -105 58 -27 16 -63 35 -80 43 -16 9 -42 25 -57 38 -15 12
-70 43 -123 69 -53 26 -100 56 -106 66 -5 11 -18 19 -28 19 -10 0 -29 8 -42
18 -13 10 -45 28 -70 41 -45 21 -78 41 -203 122 -33 22 -64 39 -69 39 -5 0
-28 15 -51 33 -23 19 -51 39 -63 45 -12 7 -25 21 -28 32 -8 25 -27 26 -48 2z"/>
<path d="M18190 12710 c0 -25 4 -31 18 -28 11 2 17 12 17 28 0 16 -6 26 -17
28 -14 3 -18 -3 -18 -28z"/>
<path d="M6848 11549 c-20 -11 -24 -44 -8 -54 18 -11 10 -25 -24 -39 -19 -8
-39 -23 -45 -34 -15 -29 -41 -35 -63 -15 -17 15 -20 15 -34 1 -23 -22 -9 -114
22 -140 12 -11 25 -31 28 -44 4 -13 10 -24 15 -24 12 0 41 -32 116 -130 35
-47 79 -104 97 -128 18 -24 42 -53 54 -65 11 -12 38 -44 58 -72 21 -27 74 -92
119 -143 44 -51 90 -105 101 -121 22 -30 80 -104 144 -182 20 -25 73 -90 116
-145 44 -54 83 -101 88 -102 5 -2 22 -25 40 -50 17 -26 47 -65 66 -87 35 -42
193 -238 227 -284 49 -65 157 -200 190 -236 67 -75 205 -247 205 -255 0 -5 33
-48 73 -95 149 -176 193 -228 217 -264 14 -20 46 -56 70 -81 25 -25 52 -59 60
-75 8 -17 28 -44 45 -61 16 -17 46 -53 65 -79 19 -26 67 -85 105 -130 39 -46
85 -103 102 -127 48 -64 126 -163 143 -181 8 -9 33 -40 55 -68 39 -50 153
-189 197 -239 22 -25 89 -110 138 -176 55 -74 210 -261 239 -289 17 -17 31
-35 31 -42 0 -7 33 -50 73 -95 41 -46 101 -119 135 -163 34 -44 72 -92 84
-108 13 -15 53 -64 91 -110 90 -110 128 -154 153 -180 12 -12 33 -40 48 -62
51 -76 77 -110 126 -165 59 -66 111 -129 165 -200 22 -29 50 -64 63 -79 47
-55 128 -155 149 -185 12 -17 42 -54 65 -83 24 -29 63 -77 88 -108 25 -31 73
-89 108 -130 34 -41 62 -78 62 -82 0 -4 28 -37 61 -73 34 -36 66 -74 72 -85 5
-11 31 -45 57 -75 26 -30 57 -70 70 -88 12 -19 33 -44 46 -57 13 -13 24 -29
24 -34 0 -6 14 -17 30 -26 17 -9 30 -22 30 -30 0 -8 29 -48 65 -90 36 -42 65
-83 65 -90 0 -7 11 -20 25 -29 13 -9 31 -29 40 -45 8 -16 23 -32 32 -35 10 -4
40 -35 67 -71 47 -62 75 -83 96 -70 17 10 11 55 -11 91 -13 21 -18 41 -14 54
4 13 -3 36 -19 65 -38 64 -35 100 10 121 32 15 35 20 30 47 -3 16 -6 37 -6 47
0 22 -135 249 -161 272 -11 9 -37 40 -58 70 -41 56 -120 154 -239 296 -40 48
-84 101 -97 117 -14 17 -40 50 -60 73 -19 24 -35 48 -35 53 0 4 -12 22 -27 38
-29 30 -56 62 -143 169 -29 34 -55 62 -60 62 -4 0 -13 13 -20 29 -6 17 -28 48
-48 69 -21 22 -57 66 -82 97 -25 32 -61 77 -80 100 -19 23 -51 62 -70 85 -95
116 -122 148 -154 185 -18 22 -50 64 -69 92 -19 29 -61 83 -92 120 -31 37 -70
84 -86 103 -117 140 -171 207 -219 270 -30 39 -64 81 -74 93 -33 35 -102 121
-122 152 -10 16 -28 39 -39 52 -23 26 -66 76 -122 144 -21 25 -51 65 -68 88
-16 24 -50 67 -75 95 -103 119 -132 153 -165 196 -19 25 -52 68 -75 95 -172
213 -230 287 -264 333 -21 28 -41 52 -45 52 -4 0 -15 15 -25 33 -11 17 -42 57
-70 88 -28 30 -69 79 -91 108 -85 114 -134 173 -248 306 -19 22 -40 50 -46 63
-7 13 -56 74 -110 136 -54 62 -104 123 -111 137 -7 13 -33 44 -56 69 -24 25
-61 68 -81 97 -56 77 -147 193 -182 232 -17 19 -31 38 -31 42 0 5 -19 28 -42
52 -24 25 -63 70 -88 102 -25 31 -58 73 -75 92 -16 19 -46 54 -65 79 -19 24
-64 79 -100 121 -36 43 -76 95 -88 116 -13 20 -27 37 -31 37 -4 0 -12 10 -18
23 -6 12 -26 40 -46 62 -19 22 -58 66 -86 97 -28 32 -61 75 -74 96 -14 20 -32
44 -42 52 -10 8 -28 31 -40 50 -12 19 -67 88 -121 152 -55 64 -124 149 -154
188 -50 65 -123 150 -164 190 -9 8 -28 27 -43 43 -29 30 -31 31 -55 16z"/>
</g>
</svg>
